<?xml version="1.0" encoding="utf-8"?>
<!-- Generator: Adobe Illustrator 19.2.1, SVG Export Plug-In . SVG Version: 6.00 Build 0)  -->
<svg version="1.1" id="Warstwa_1" xmlns="http://www.w3.org/2000/svg" xmlns:xlink="http://www.w3.org/1999/xlink" x="0px" y="0px"
	 viewBox="0 0 190 48" style="enable-background:new 0 0 190 48;" xml:space="preserve">
<style type="text/css">
	.st0{fill:#228600;}
</style>
<g>
	<g>
		<path class="st0" d="M0,47h10.5V14.2c0,0-4.1-3.9-10.5-5.5V47z M131.9,47h10.5V20.8V8.8c-6.3,1.6-10.5,5.5-10.5,5.5V47z M28.8,8.2
			C20.1,8.5,14,14.2,14,14.2V47h10.5V21.3c0.4-1.7,2.8-2.8,4.6-3.1c3.8-0.8,8,1.5,8,5.5V47h0.7h9.8V23.1
			C47.4,12.1,37.5,7.9,28.8,8.2z M184.5,25.8c-1-10.1-9.4-17.7-19.6-17.7c-10.9,0-19.7,8.8-19.7,19.7c0,10.9,8.8,19.7,19.7,19.7
			c5.1,0,10-2,13.7-5.6l1.3,5.1H190L184.5,25.8z M164.9,37.2c-5.2,0-9.4-4.2-9.4-9.4c0-5.2,4.2-9.4,9.4-9.4s9.4,4.2,9.4,9.4
			C174.3,33,170.1,37.2,164.9,37.2z M88.4,8.2c-10.8,0-19.6,8.8-19.6,19.6c0,10.8,8.8,19.6,19.6,19.6c8.1,0,15.3-4.9,18.2-12.4
			l0.2-0.4H95.5l-0.1,0.1c-1.9,1.9-4.4,3-7,3c-3.9,0-7.4-2.3-9-5.9h28.2l0-0.2c0.2-1.2,0.3-2.5,0.3-3.7C108,17,99.2,8.2,88.4,8.2z
			 M79.6,23.6c1.6-3.4,5.1-5.6,8.8-5.6s7.2,2.2,8.8,5.6H79.6z M125.8,8.2c-8.7,0.3-14.8,6.1-14.8,6.1V47h10.5V20.8
			c1.2-1.9,5.3-2.7,7-2.8V8.2C127.5,8.2,126.6,8.1,125.8,8.2z M61.4,8.6V0H50.9v41.4c0,0,6.1,5.8,14.8,6.1c0.9,0,1.7,0,2.6,0v-9.8
			c-1.6-0.1-5.8-0.9-7-2.8V19.1h7V8.7L61.4,8.6L61.4,8.6L61.4,8.6z"/>
	</g>
</g>
</svg>
