<svg class="common-header__svg" xmlns="http://www.w3.org/2000/svg" viewBox="0 0 76 17"><path fill="#228600" class="common-header__svg-path" d="M.24 14.23l1.15-1.36c1.72 1.55 3.36 2.32 5.64 2.32 2.2 0 3.66-1.17 3.66-2.8v-.04c0-1.52-.82-2.4-4.27-3.12C2.64 8.41.9 7.19.9 4.49v-.05C.9 1.86 3.18-.04 6.3-.04c2.4 0 4.1.68 5.77 2.02L11 3.4a7.22 7.22 0 0 0-4.74-1.78c-2.13 0-3.5 1.17-3.5 2.65v.05c0 1.55.85 2.41 4.46 3.19 3.67.8 5.35 2.13 5.35 4.64v.05c0 2.82-2.34 4.65-5.6 4.65-2.6 0-4.74-.87-6.72-2.63z"/><path fill="#228600" class="common-header__svg-path" d="M15.23.2h6.15c3.71 0 6.15 1.97 6.15 5.2v.05c0 3.55-2.96 5.38-6.45 5.38h-4v5.8h-1.85V.2zm5.92 8.94c2.72 0 4.5-1.46 4.5-3.62v-.04c0-2.35-1.76-3.57-4.4-3.57h-4.16v7.23h4.06zM29.08 8.46V8.4c0-4.53 3.4-8.5 8.4-8.5s8.36 3.92 8.36 8.45v.05c0 4.53-3.4 8.5-8.4 8.5s-8.36-3.92-8.36-8.45zm14.83 0V8.4c0-3.73-2.72-6.78-6.47-6.78S31 4.63 31 8.36v.05c0 3.73 2.72 6.78 6.47 6.78s6.43-3 6.43-6.73z"/><path fill="#228600" class="common-header__svg-path" d="M48.61.2h7.07c2.01 0 3.63.6 4.67 1.64.8.8 1.26 1.95 1.26 3.24v.04c0 2.73-1.87 4.32-4.46 4.8l5.05 6.7h-2.28l-4.76-6.38h-4.7v6.38h-1.85V.2zm6.9 8.37c2.47 0 4.23-1.26 4.23-3.38v-.04c0-2.02-1.55-3.24-4.2-3.24h-5.07v6.66h5.04z"/><path fill="#228600" class="common-header__svg-path" d="M68.35 1.9h-5.52V.2h12.9v1.7h-5.5v14.72h-1.88V1.91z"/></svg>